<svg width="211" height="42" viewBox="0 0 211 42" fill="none" xmlns="http://www.w3.org/2000/svg">
<mask id="mask0_501_54" style="mask-type:luminance" maskUnits="userSpaceOnUse" x="-4" y="0" width="218" height="42">
<path d="M-3.00781 41.5267H213.492V0.527161H-3.00781V41.5267Z" fill="white"/>
</mask>
<g mask="url(#mask0_501_54)">
<path d="M81.6779 36.3348V31.8428H76.6065V36.3348H74.959V26.3141H76.6065V30.4391H81.6779V26.3141H83.325V36.3348H81.6779ZM90.3938 27.4589C90.011 27.4589 89.6606 27.5345 89.3318 27.6819C89.0067 27.8297 88.7214 28.0274 88.4791 28.2832C88.2372 28.535 88.0388 28.8339 87.8872 29.1756C87.7391 29.5142 87.645 29.8774 87.6091 30.2664H92.767C92.767 29.8703 92.7163 29.5033 92.6116 29.165C92.507 28.823 92.355 28.5244 92.1528 28.2723C91.9544 28.0168 91.7087 27.8187 91.4124 27.6747C91.1199 27.5307 90.7805 27.4589 90.3938 27.4589ZM91.2499 35.1688C91.7919 35.1688 92.2862 35.1253 92.7345 35.0391C93.1824 34.9526 93.6302 34.8301 94.0747 34.6718V36.0252C93.7134 36.2017 93.2693 36.3385 92.7417 36.4429C92.2106 36.5438 91.6433 36.594 91.0367 36.594C90.3182 36.594 89.6425 36.5041 89.0105 36.3204C88.3782 36.1367 87.8328 35.8419 87.3706 35.4349C86.9117 35.0282 86.5504 34.4956 86.287 33.8369C86.027 33.1819 85.8969 32.3901 85.8969 31.4614C85.8969 30.5472 86.0232 29.7554 86.276 29.0856C86.5327 28.4125 86.8683 27.8546 87.2908 27.4049C87.7138 26.9547 88.2013 26.6165 88.7505 26.3935C89.2993 26.1667 89.8738 26.0552 90.4732 26.0552C91.0367 26.0552 91.5643 26.1486 92.0515 26.3356C92.5432 26.5231 92.9692 26.8145 93.3267 27.2178C93.6884 27.6173 93.9696 28.1355 94.1794 28.7689C94.3854 29.4024 94.4901 30.162 94.4901 31.0472C94.4901 31.1304 94.4901 31.2022 94.4901 31.2634C94.4901 31.3246 94.4867 31.4577 94.4791 31.6701H87.5259C87.5259 32.3073 87.6197 32.847 87.8151 33.2934C88.0097 33.736 88.2735 34.0996 88.6095 34.377C88.9451 34.6502 89.3356 34.8521 89.7868 34.9779C90.2385 35.1038 90.726 35.1688 91.2499 35.1688ZM100.894 27.7178C100.876 30.8129 100.886 32.4607 98.66 34.888L98.62 34.931H103.701V27.7178H100.894ZM105.348 26.3141V34.931H106.974V39.9196H105.326V36.3348H97.8489V39.9196H96.2022V34.931H96.7442C99.9318 31.4089 99.2398 29.9927 99.3917 26.3141H105.348ZM115.625 31.1266C115.867 31.1481 116.102 31.2093 116.34 31.3103C116.575 31.4108 116.788 31.5548 116.976 31.7385C117.16 31.9184 117.312 32.1489 117.424 32.4222C117.536 32.6958 117.59 33.0163 117.59 33.3833C117.59 33.9952 117.416 34.5353 117.066 35.0104C116.716 35.4855 116.195 35.8381 115.506 36.0721C115.245 36.1549 114.938 36.2199 114.592 36.2664C114.241 36.3132 113.833 36.3348 113.367 36.3348H109.549V26.3141H113.588C114.032 26.3141 114.415 26.3356 114.733 26.3825C115.05 26.4294 115.329 26.494 115.571 26.5768C116.141 26.782 116.575 27.0881 116.867 27.502C117.16 27.9125 117.308 28.3875 117.308 28.9201C117.308 29.2368 117.261 29.5176 117.164 29.7588C117.07 30.0037 116.943 30.2089 116.788 30.3816C116.633 30.5544 116.456 30.6984 116.25 30.8133C116.044 30.9285 115.838 31.0185 115.625 31.0835V31.1266ZM113.374 34.9526C113.75 34.9526 114.072 34.9348 114.332 34.8985C114.595 34.8664 114.816 34.8124 114.996 34.7402C115.318 34.6143 115.545 34.4378 115.679 34.211C115.813 33.9809 115.878 33.711 115.878 33.4015C115.878 33.0451 115.787 32.7461 115.607 32.505C115.422 32.2676 115.173 32.0911 114.852 31.9796C114.584 31.8897 114.22 31.8428 113.75 31.8428H111.196V34.9526H113.374ZM113.728 30.4606C114.14 30.4606 114.454 30.4281 114.671 30.3673C114.985 30.2664 115.22 30.108 115.372 29.8918C115.52 29.6726 115.596 29.4061 115.596 29.0894C115.596 28.535 115.368 28.1426 114.913 27.9196C114.635 27.7719 114.191 27.6963 113.591 27.6963H111.196V30.4606H113.728ZM121.621 36.3348H120.183V26.3141H121.83V31.8103C121.83 32.793 121.812 33.5201 121.776 33.9809H121.82C122.018 33.6604 122.256 33.2934 122.538 32.8867C122.82 32.4762 123.127 32.0514 123.46 31.6088L127.436 26.3141H128.874V36.3348H127.227V30.8386C127.227 30.0649 127.245 29.3411 127.281 28.6684H127.238C127.039 28.9885 126.797 29.3559 126.512 29.7625C126.227 30.1726 125.919 30.5974 125.587 31.04L121.621 36.3348ZM138.569 36.3348H136.922V31.4323H136.9L132.775 36.3348H130.774L135.091 31.3031L131.049 26.3141H133.028L136.9 31.2203H136.922V26.3141H138.569V31.2203H138.591L142.463 26.3141H144.443L140.4 31.3031L144.717 36.3348H142.716L138.591 31.4323H138.569V36.3348ZM148.011 36.3348H146.574V26.3141H148.221V31.8103C148.221 32.793 148.203 33.5201 148.166 33.9809H148.21C148.409 33.6604 148.647 33.2934 148.929 32.8867C149.211 32.4762 149.517 32.0514 149.85 31.6088L153.827 26.3141H155.264V36.3348H153.617V30.8386C153.617 30.0649 153.635 29.3411 153.671 28.6684H153.628C153.429 28.9885 153.187 29.3559 152.902 29.7625C152.617 30.1726 152.31 30.5974 151.977 31.04L148.011 36.3348ZM163.269 36.3348L161.354 31.537C160.95 30.529 160.531 29.453 160.105 28.3082H160.007C160.058 29.1435 160.083 30.2089 160.083 31.5045V36.3348H158.436V26.3141H160.762L162.568 30.8711C162.998 31.9471 163.377 32.9513 163.702 33.8871H163.778C164.125 32.9226 164.504 31.9184 164.912 30.8711L166.729 26.3141H169.056V36.3348H167.408V31.5045C167.408 30.3491 167.434 29.2837 167.481 28.3082H167.387C167.094 29.111 166.675 30.187 166.137 31.537L164.222 36.3348H163.269ZM179.455 31.3352C179.455 30.7161 179.379 30.1654 179.227 29.6832C179.076 29.2009 178.863 28.7904 178.592 28.456C178.317 28.1211 177.996 27.869 177.62 27.6963C177.244 27.5235 176.832 27.4374 176.388 27.4374C175.944 27.4374 175.532 27.5235 175.157 27.6963C174.781 27.869 174.46 28.1211 174.185 28.456C173.914 28.7904 173.701 29.2009 173.549 29.6832C173.397 30.1654 173.321 30.7161 173.321 31.3352C173.321 31.9471 173.397 32.4944 173.549 32.9767C173.701 33.4589 173.914 33.8656 174.192 34.1967C174.467 34.5281 174.792 34.7799 175.167 34.9526C175.543 35.1253 175.955 35.2119 176.399 35.2119C176.843 35.2119 177.252 35.1253 177.624 34.9526C177.996 34.7799 178.317 34.5281 178.592 34.1967C178.863 33.8656 179.076 33.4589 179.227 32.9767C179.379 32.4944 179.455 31.9471 179.455 31.3352ZM181.167 31.3352C181.167 32.1236 181.055 32.8398 180.828 33.4842C180.604 34.1321 180.282 34.6865 179.87 35.1435C179.455 35.6042 178.957 35.9606 178.371 36.2161C177.783 36.4682 177.125 36.594 176.399 36.594C175.651 36.594 174.979 36.4682 174.391 36.2161C173.802 35.9606 173.3 35.6042 172.884 35.1435C172.473 34.6865 172.159 34.1321 171.938 33.4842C171.718 32.8398 171.609 32.1236 171.609 31.3352C171.609 30.54 171.721 29.82 171.949 29.1756C172.173 28.5278 172.494 27.9737 172.906 27.5092C173.322 27.0451 173.824 26.6887 174.412 26.4332C175.001 26.1811 175.662 26.0552 176.388 26.0552C177.129 26.0552 177.797 26.1811 178.389 26.4332C178.985 26.6887 179.488 27.0451 179.896 27.5092C180.304 27.9737 180.618 28.5278 180.838 29.1756C181.059 29.82 181.167 30.54 181.167 31.3352ZM188.063 26.0552C188.55 26.0552 189.016 26.1055 189.46 26.2064C189.905 26.3069 190.284 26.4475 190.602 26.6308V27.9771C190.158 27.8116 189.75 27.6857 189.374 27.6029C189.002 27.5201 188.619 27.4805 188.232 27.4805C187.821 27.4805 187.416 27.5489 187.015 27.6819C186.614 27.8153 186.253 28.0345 185.935 28.3407C185.617 28.6464 185.361 29.0497 185.169 29.5535C184.974 30.0539 184.877 30.6802 184.877 31.4252C184.877 31.9653 184.949 32.4657 185.094 32.9226C185.238 33.3799 185.455 33.7756 185.74 34.1105C186.025 34.4416 186.383 34.7043 186.813 34.888C187.243 35.075 187.741 35.1688 188.305 35.1688C188.716 35.1688 189.128 35.1253 189.544 35.0391C189.959 34.9526 190.367 34.8301 190.761 34.6718V36.0252C190.642 36.0974 190.483 36.1658 190.291 36.2376C190.096 36.306 189.883 36.3673 189.649 36.4213C189.417 36.4716 189.172 36.5147 188.908 36.5472C188.648 36.5797 188.388 36.594 188.124 36.594C187.449 36.594 186.809 36.4931 186.206 36.2879C185.603 36.0864 185.075 35.7735 184.624 35.3521C184.172 34.9276 183.815 34.3947 183.555 33.7469C183.295 33.1025 183.165 32.336 183.165 31.4505C183.165 30.7917 183.233 30.1979 183.371 29.6688C183.508 29.1435 183.696 28.679 183.938 28.2795C184.176 27.88 184.454 27.5379 184.776 27.2571C185.097 26.9767 185.44 26.7461 185.802 26.5662C186.166 26.3863 186.542 26.2567 186.929 26.1773C187.319 26.0945 187.694 26.0552 188.063 26.0552ZM195.616 27.7613H192.199V26.3141H200.68V27.7613H197.263V36.3348H195.616V27.7613ZM206.022 35.0391C206.481 35.0391 206.897 35.0032 207.272 34.9276C207.651 34.8521 207.973 34.7402 208.24 34.589C208.507 34.4344 208.713 34.2402 208.858 34.0062C209.002 33.7685 209.075 33.4914 209.075 33.1709C209.075 32.9192 209.02 32.6815 208.916 32.4657C208.811 32.2495 208.645 32.0662 208.413 31.9112C208.186 31.7528 207.893 31.6304 207.543 31.5442C207.189 31.4543 206.766 31.4108 206.275 31.4108C206.037 31.4108 205.762 31.4218 205.455 31.4433C205.148 31.4648 204.809 31.5045 204.437 31.5586V34.9023C204.653 34.9492 204.906 34.9851 205.191 35.0066C205.477 35.0282 205.755 35.0391 206.022 35.0391ZM204.437 26.3141V30.1654C204.747 30.1224 205.08 30.0899 205.434 30.0649C205.791 30.0396 206.134 30.0286 206.467 30.0286C207.225 30.0286 207.879 30.108 208.421 30.2664C208.962 30.4247 209.411 30.6405 209.761 30.9213C210.115 31.1984 210.371 31.5261 210.538 31.9078C210.704 32.2854 210.787 32.6958 210.787 33.1422C210.787 33.711 210.664 34.2039 210.415 34.6181C210.169 35.032 209.826 35.374 209.389 35.6401C208.952 35.9065 208.435 36.1046 207.836 36.2304C207.236 36.3563 206.579 36.4213 205.867 36.4213C205.26 36.4213 204.7 36.3888 204.18 36.3204C203.664 36.2558 203.198 36.1586 202.789 36.0324V26.3141H204.437Z" fill="#4F3D3F"/>
<path fill-rule="evenodd" clip-rule="evenodd" d="M5.02724 21.6173C6.45061 18.9421 8.38459 18.2894 10.8292 19.6591V14.2003C7.63813 14.0159 5.70415 15.3773 5.02724 18.2841V14.2003H-0.207031V29.0339H5.02724V21.6173Z" fill="#4F3D3F"/>
<path fill-rule="evenodd" clip-rule="evenodd" d="M12.5811 14.1837V29.0172L18.4144 29.0255V14.2003L12.5811 14.1837Z" fill="#4F3D3F"/>
<path fill-rule="evenodd" clip-rule="evenodd" d="M12.5811 12.7641H18.4136V8.61798H12.5811V12.7641Z" fill="#4F3D3F"/>
<path fill-rule="evenodd" clip-rule="evenodd" d="M32.8954 15.0322C15.9537 9.87734 16.1449 33.3301 32.8954 28.2334V24.1583C31.8727 24.6205 30.5359 24.9153 29.2724 24.8957C24.0203 24.814 23.9773 18.5449 29.1257 18.3764C30.4618 18.3325 31.8829 18.6496 32.8954 19.1073V15.0322Z" fill="#4F3D3F"/>
<path fill-rule="evenodd" clip-rule="evenodd" d="M47.5653 15.0322C30.6236 9.87734 30.8149 33.3301 47.5653 28.2334V24.1583C46.543 24.6205 45.2058 24.9153 43.9427 24.8957C38.6903 24.814 38.6472 18.5449 43.7956 18.3764C45.1317 18.3325 46.5528 18.6496 47.5653 19.1073V15.0322Z" fill="#4F3D3F"/>
<path fill-rule="evenodd" clip-rule="evenodd" d="M49.5996 14.1837V29.0172L55.4329 29.0255V14.2003L49.5996 14.1837Z" fill="#4F3D3F"/>
<path fill-rule="evenodd" clip-rule="evenodd" d="M49.5996 12.7641H55.4329V8.61798H49.5996V12.7641Z" fill="#4F3D3F"/>
<path fill-rule="evenodd" clip-rule="evenodd" d="M62.79 0.433044V41.5452H65.1651V0.433044H62.79Z" fill="#4F3D3F"/>
</g>
<path fill-rule="evenodd" clip-rule="evenodd" d="M139.044 14.9476C140.225 12.6519 140.707 10.2042 140.844 7.11184L144.245 7.09748V14.9476H139.044ZM137.401 16.2205L146.274 16.2587V19.8273L147.694 19.7237C148.109 18.6761 147.892 16.1366 147.892 14.8871L145.965 14.8251L145.954 5.61212L139.366 5.66692C139.209 7.7211 139.153 9.62938 138.683 11.5736C138.171 13.6939 137.909 14.7393 135.759 15.002V19.7725C136.94 19.8931 137.401 20.0684 137.401 18.7664V16.2205Z" fill="#4E3D3F"/>
<path fill-rule="evenodd" clip-rule="evenodd" d="M115.881 9.21894C115.881 6.76679 121.43 4.83167 121.43 10.7043V10.9163C121.43 16.2579 115.881 15.6725 115.881 13.0382V9.21894ZM116.017 7.14285C115.043 5.96515 116.384 5.61214 114.044 5.61214V19.8273L115.885 19.7869L115.885 15.3081C116.843 15.7201 116.927 16.2738 118.339 16.4163C123.994 16.987 124.714 7.67803 121.076 5.81132C119.082 4.7882 116.868 5.82077 116.017 7.14285Z" fill="#4E3D3F"/>
<path fill-rule="evenodd" clip-rule="evenodd" d="M103.514 11.9772C103.276 9.78057 103.724 7.58391 105.494 7.02529C107.886 6.27014 109.323 7.72375 109.645 9.85276C110.593 16.1083 104.009 16.5421 103.514 11.9772ZM101.6 10.9163C101.6 18.2936 111.576 18.3722 111.576 10.9163C111.576 3.42605 101.6 3.55531 101.6 10.9163Z" fill="#4E3D3F"/>
<path fill-rule="evenodd" clip-rule="evenodd" d="M126.851 11.9772C126.614 9.78057 127.062 7.58391 128.832 7.02529C131.224 6.27014 132.661 7.72375 132.983 9.85276C133.931 16.1083 127.346 16.5421 126.851 11.9772ZM124.938 10.9163C124.938 18.2936 134.914 18.3722 134.914 10.9163C134.914 3.42605 124.938 3.55531 124.938 10.9163Z" fill="#4E3D3F"/>
<path fill-rule="evenodd" clip-rule="evenodd" d="M149.9 16.2205L151.742 16.1551L151.74 11.3407L156.851 11.3937L156.85 16.2205H158.656V5.61212H156.85V9.7851L151.749 9.8554L151.74 5.70056L149.9 5.61212V16.2205Z" fill="#4E3D3F"/>
<path fill-rule="evenodd" clip-rule="evenodd" d="M167.298 11.5709C167.298 13.3088 167.501 13.9343 166.213 14.6875C165.311 15.2144 163.639 15.4491 162.934 14.652C160.908 12.3578 165.414 11.5248 167.298 11.5709ZM161.398 7.33673L162.01 7.89686C163.149 7.82769 167.292 4.38303 167.298 10.2617C164.65 10.3445 160.476 10.8721 160.851 14.1006C161.02 15.5534 162.292 16.4178 163.713 16.4371C165.523 16.462 166.213 15.5912 167.317 14.954C167.998 16.0402 167.006 16.2205 169.073 16.2205C169.073 11.5286 169.978 6.32722 166.354 5.50328C164.588 5.1019 161.895 5.82492 161.398 7.33673Z" fill="#4E3D3F"/>
<path fill-rule="evenodd" clip-rule="evenodd" d="M89.6452 11.5709C89.6452 13.3088 89.8474 13.9343 88.5594 14.6875C87.658 15.2144 85.9851 15.4491 85.2806 14.652C83.2544 12.3578 87.7604 11.5248 89.6452 11.5709ZM83.745 7.33673L84.3565 7.89686C85.634 7.81937 86.2452 6.5264 88.1236 6.93723C89.5541 7.25018 89.6433 8.67506 89.6452 10.2617C80.6624 10.5425 82.4637 16.3879 86.06 16.4371C87.8692 16.462 88.5597 15.5912 89.6634 14.954C90.3444 16.0402 89.3531 16.2205 91.4193 16.2205C91.4193 11.5286 92.3245 6.32722 88.7003 5.50328C86.9346 5.1019 84.2413 5.82492 83.745 7.33673Z" fill="#4E3D3F"/>
<path fill-rule="evenodd" clip-rule="evenodd" d="M175.804 10.4919C172.495 10.4919 172.684 6.88509 175.592 6.88509H177.289V10.4919H175.804ZM174.369 11.3786L170.536 16.1657C173.147 16.377 172.388 16.1105 175.081 12.5226C175.744 11.6401 175.89 11.7648 177.289 11.7648V16.2205H179.044L179.045 5.61214C176.425 5.61214 172.208 5.05995 171.646 8.05258C171.238 10.2243 172.755 10.8808 174.369 11.3786Z" fill="#4E3D3F"/>
<path fill-rule="evenodd" clip-rule="evenodd" d="M74.0373 6.67303C74.5884 8.2336 75.4818 6.88506 77.3576 6.88506C79.9681 6.88506 81.5026 10.0674 75.9902 10.0674V11.3407C81.7706 11.3407 80.0902 14.9476 77.3576 14.9476C75.9592 14.9476 75.4229 14.1848 74.317 13.8866L73.7871 14.731C75.1035 17.0611 80.2312 17.0527 81.2789 14.4059C82.1202 12.2807 80.9172 11.2943 79.5271 10.6563C80.0354 10.1748 81.7982 9.49294 81.1247 7.38585C80.3559 4.98169 75.5676 4.77231 74.0373 6.67303Z" fill="#4E3D3F"/>
<path fill-rule="evenodd" clip-rule="evenodd" d="M94.1006 16.2205H95.1796L95.9423 16.1551L95.9397 7.09748H100.926V5.61212H94.1006V16.2205Z" fill="#4E3D3F"/>
</svg>
