<svg width="96" height="96" viewBox="0 0 96 96" fill="none" xmlns="http://www.w3.org/2000/svg">
<path fill-rule="evenodd" clip-rule="evenodd" d="M62.6081 56.9491C62.6081 58.9633 62.2373 60.1686 61.6041 61.6954C60.81 63.6105 59.4299 65.2212 57.7869 66.4108C55.6727 67.9416 53.5702 68.6351 50.7367 68.6351C50.7367 73.812 51.6333 77.5386 47.5833 77.5386C44.3587 77.5386 45.172 71.821 45.172 68.6351C42.7541 68.6351 38.2859 69.0737 37.1428 67.9462C35.5944 66.4189 36.2651 63.9762 38.0566 63.3747C39.4186 62.9172 48.1571 63.5574 51.2706 63.2333C53.7847 62.9716 55.6072 61.5741 56.5574 59.6165C58.0827 56.4738 56.5648 52.4033 52.8837 51.0923C49.302 49.8167 40.9956 53.2986 35.549 45.9827C33.2129 42.8451 32.5425 38.1261 34.2872 34.3785L35.9392 31.7643C38.2559 28.9494 41.3154 27.4563 45.172 27.4563C45.172 22.2792 44.2753 18.5526 48.3254 18.5526C51.5499 18.5526 50.7367 24.2703 50.7367 27.4563C53.1545 27.4563 57.6227 27.0175 58.7658 28.1451C60.3142 29.6723 59.6435 32.115 57.852 32.7166C56.49 33.174 47.7515 32.5338 44.638 32.8579C39.6162 33.3808 36.8503 38.7969 40.3416 43.2305C40.8748 43.9077 42.0688 44.6584 43.0249 44.9989C46.6015 46.2727 54.9228 42.7961 60.3597 50.1085C61.5579 51.7201 62.6081 54.1858 62.6081 56.9491ZM46.5767 0.560059H50.257C56.5084 0.794179 62.6463 2.22458 68.0505 4.94858C76.2037 9.05834 81.4344 13.2583 86.829 20.6712C88.5363 23.0172 89.6965 25.2616 91.0513 27.9495C93.2269 32.2656 95.4399 39.9756 95.4399 46.3763V49.7151C95.4399 56.2144 93.1732 63.9381 90.9888 68.2648C86.9494 76.2657 82.6357 81.6345 75.3289 86.9207C72.966 88.6301 70.7512 89.7813 68.0505 91.1427C63.7343 93.3183 56.0243 95.5312 49.6237 95.5312H46.285C39.7857 95.5312 32.0627 93.265 27.7352 91.0801C22.8522 88.615 16.1722 84.3647 12.8183 80.0283C9.76671 76.0827 10.0539 77.253 6.76479 71.799C6.05163 70.6165 5.45787 69.3444 4.79463 68.019C1.56783 61.5701 0.46875 54.7445 0.46875 46.5617C0.46875 39.9903 2.62815 32.3718 4.85727 27.9495C8.96523 19.7998 13.1661 14.5663 20.5799 9.1709C27.8494 3.8807 37.2043 0.905179 46.5767 0.560059Z" fill="black"/>
</svg>
